PathFileType	4	(X/Y/Z)	 2.6Hz3min.trc
DataRate	CameraRate	NumFrames	NumMarkers	Units	OrigDataRate	OrigDataStartFrame	OrigNumFrames
200	200	9	35	m	200	1	1000
Frame#	Time	C7			LSH			RSH			MAN			RASI			LASI			HIPR			HIPL			RPSI			LPSI			COX			RTHI1			RTHI2			RTHI3			RTHI4			RSHA1			RSHA2			RSHA3			RSHA4			RHEEL			RMET5			RMET1			RTOE			LTHI1			LTHI2			LTHI3			LTHI4			LSHA1			LSHA2			LSHA3			LSHA4			LHEEL			LMET5			LMET1			LTOE			
		X1	Y1	Z1	X2	Y2	Z2	X3	Y3	Z3	X4	Y4	Z4	X5	Y5	Z5	X6	Y6	Z6	X7	Y7	Z7	X8	Y8	Z8	X9	Y9	Z9	X10	Y10	Z10	X11	Y11	Z11	X12	Y12	Z12	X13	Y13	Z13	X14	Y14	Z14	X15	Y15	Z15	X16	Y16	Z16	X17	Y17	Z17	X18	Y18	Z18	X19	Y19	Z19	X20	Y20	Z20	X21	Y21	Z21	X22	Y22	Z22	X23	Y23	Z23	X24	Y24	Z24	X25	Y25	Z25	X26	Y26	Z26	X27	Y27	Z27	X28	Y28	Z28	X29	Y29	Z29	X30	Y30	Z30	X31	Y31	Z31	X32	Y32	Z32	X33	Y33	Z33	X34	Y34	Z34	X35	Y35	Z35	
1	0.0050	-0.286680	1.428814	-0.531748	-0.245917	1.401748	-0.700582	-0.215533	1.398357	-0.362667	-0.171226	1.377326	-0.538961	-0.135606	0.979336	-0.443047	-0.126371	0.989228	-0.625603	-0.195407	1.038260	-0.403126	-0.173239	1.042868	-0.664092	-0.281640	1.022225	-0.480522	-0.272635	1.022395	-0.593371	-0.283611	1.030828	-0.537889	-0.258198	0.780063	-0.379290	-0.244605	0.722469	-0.368727	-0.184351	0.735840	-0.348492	-0.189666	0.796803	-0.356299	-0.298583	0.350304	-0.343773	-0.309270	0.311188	-0.346044	-0.257733	0.295025	-0.326876	-0.241334	0.334712	-0.326719	-0.352256	0.152464	-0.375015	-0.234955	0.043406	-0.318639	-0.205413	0.042230	-0.389621	-0.187667	0.031270	-0.378207	-0.206049	0.789423	-0.722077	-0.198763	0.728577	-0.728202	-0.135839	0.728274	-0.711568	-0.135777	0.787587	-0.704187	-0.295501	0.336323	-0.766790	-0.301850	0.292187	-0.767270	-0.249174	0.282767	-0.758966	-0.235484	0.321029	-0.757818	-0.364243	0.165189	-0.729749	-0.244802	0.045890	-0.776340	-0.221203	0.048353	-0.709289	-0.200144	0.033149	-0.717462	
2	0.0100	-0.286406	1.430703	-0.531752	-0.245768	1.403765	-0.700426	-0.215726	1.400239	-0.362908	-0.171211	1.379434	-0.538828	-0.135220	0.981102	-0.443194	-0.126307	0.990939	-0.625603	-0.194785	1.040496	-0.403196	-0.173081	1.044724	-0.664038	-0.281468	1.024513	-0.479951	-0.272391	1.024618	-0.593111	-0.283301	1.033127	-0.537633	-0.258202	0.781932	-0.379790	-0.244825	0.724277	-0.369301	-0.184682	0.737543	-0.348673	-0.189808	0.798511	-0.356408	-0.298041	0.351669	-0.342912	-0.308645	0.312431	-0.345267	-0.256928	0.296211	-0.326568	-0.240773	0.336257	-0.326591	-0.351244	0.153777	-0.374116	-0.233531	0.045033	-0.317931	-0.204169	0.043434	-0.388280	-0.186394	0.032341	-0.376760	-0.206592	0.791185	-0.721880	-0.199299	0.730351	-0.728136	-0.136244	0.730106	-0.711964	-0.136170	0.789366	-0.704515	-0.294702	0.337937	-0.767059	-0.301012	0.293789	-0.767479	-0.248354	0.284441	-0.758858	-0.234689	0.322712	-0.757703	-0.363316	0.166539	-0.729931	-0.243322	0.047783	-0.776494	-0.219794	0.050230	-0.709510	-0.198708	0.035014	-0.717710	
3	0.0150	-0.286121	1.432273	-0.531761	-0.245604	1.405449	-0.700256	-0.215918	1.401815	-0.362929	-0.171122	1.381211	-0.538721	-0.134905	0.982554	-0.443322	-0.126290	0.992387	-0.625635	-0.194155	1.042468	-0.403215	-0.173017	1.046239	-0.663961	-0.281084	1.026381	-0.479640	-0.272230	1.026429	-0.592835	-0.282978	1.034930	-0.537374	-0.258217	0.783373	-0.380296	-0.244990	0.725675	-0.369854	-0.184981	0.738915	-0.348866	-0.189938	0.799827	-0.356536	-0.297474	0.352828	-0.342268	-0.308017	0.313558	-0.344520	-0.256070	0.297467	-0.326402	-0.240185	0.337588	-0.326616	-0.350410	0.154787	-0.373394	-0.232180	0.046686	-0.317080	-0.202888	0.044703	-0.386934	-0.185042	0.033580	-0.375294	-0.207174	0.792579	-0.721694	-0.199805	0.731765	-0.728042	-0.136619	0.731648	-0.712356	-0.136611	0.790889	-0.704872	-0.294020	0.339358	-0.767223	-0.300313	0.295223	-0.767630	-0.247689	0.285899	-0.758714	-0.233997	0.324186	-0.757564	-0.362609	0.167641	-0.730063	-0.241896	0.049603	-0.776626	-0.218425	0.052084	-0.709610	-0.197288	0.036909	-0.717797	
4	0.0200	-0.285829	1.433783	-0.531770	-0.245430	1.407044	-0.700089	-0.216114	1.403309	-0.362941	-0.171017	1.382897	-0.538616	-0.134599	0.983926	-0.443446	-0.126282	0.993758	-0.625673	-0.194008	1.043813	-0.402860	-0.172967	1.047680	-0.663891	-0.280718	1.028162	-0.479321	-0.272084	1.028152	-0.592563	-0.282731	1.036680	-0.537132	-0.258233	0.784717	-0.380782	-0.245138	0.726978	-0.370396	-0.185248	0.740192	-0.349069	-0.190057	0.801057	-0.356671	-0.296903	0.353951	-0.341618	-0.307402	0.314644	-0.343804	-0.255234	0.298655	-0.326256	-0.239585	0.338856	-0.326661	-0.349633	0.155722	-0.372717	-0.230828	0.048353	-0.316211	-0.201595	0.045983	-0.385602	-0.183680	0.034849	-0.373837	-0.207755	0.793885	-0.721514	-0.200299	0.733091	-0.727950	-0.136984	0.733117	-0.712741	-0.137054	0.792339	-0.705227	-0.293366	0.340746	-0.767357	-0.299649	0.296616	-0.767750	-0.247057	0.287305	-0.758569	-0.233337	0.325597	-0.757414	-0.361946	0.168677	-0.730176	-0.240488	0.051386	-0.776732	-0.217077	0.053919	-0.709690	-0.195874	0.038793	-0.717856	
5	0.0250	-0.285521	1.435061	-0.531779	-0.245245	1.408366	-0.699920	-0.216315	1.404548	-0.362849	-0.170851	1.384302	-0.538527	-0.134339	0.985050	-0.443559	-0.126306	0.994909	-0.625735	-0.193365	1.045183	-0.403142	-0.172971	1.048872	-0.663829	-0.280278	1.029637	-0.479114	-0.271987	1.029585	-0.592288	-0.282458	1.038131	-0.536854	-0.258257	0.785749	-0.381239	-0.245239	0.727980	-0.370902	-0.185458	0.741195	-0.349286	-0.190154	0.801998	-0.356827	-0.296323	0.354933	-0.341075	-0.306802	0.315636	-0.343137	-0.254410	0.299782	-0.326206	-0.238966	0.339944	-0.326781	-0.349011	0.156420	-0.372177	-0.229506	0.050034	-0.315270	-0.200270	0.047302	-0.384301	-0.182269	0.036229	-0.372402	-0.208351	0.794905	-0.721349	-0.200763	0.734137	-0.727842	-0.137324	0.734355	-0.713107	-0.137522	0.793573	-0.705585	-0.292800	0.341984	-0.767404	-0.299093	0.297863	-0.767804	-0.246539	0.288534	-0.758404	-0.232771	0.326830	-0.757242	-0.361435	0.169510	-0.730244	-0.239134	0.053076	-0.776801	-0.215774	0.055709	-0.709688	-0.194477	0.040663	-0.717810	
6	0.0300	-0.285198	1.436173	-0.531790	-0.245016	1.409446	-0.699753	-0.216517	1.405566	-0.362721	-0.170641	1.385471	-0.538444	-0.134111	0.985941	-0.443655	-0.126358	0.995845	-0.625802	-0.192832	1.046299	-0.402917	-0.173014	1.049848	-0.663766	-0.279882	1.030867	-0.478899	-0.271919	1.030801	-0.592020	-0.282253	1.039273	-0.536569	-0.258268	0.786502	-0.381629	-0.245285	0.728716	-0.371370	-0.185583	0.741934	-0.349530	-0.190199	0.802698	-0.356988	-0.295744	0.355760	-0.340610	-0.306233	0.316510	-0.342546	-0.253666	0.300699	-0.326196	-0.238314	0.340828	-0.326916	-0.348541	0.156918	-0.371737	-0.228195	0.051721	-0.314281	-0.198934	0.048636	-0.383056	-0.180843	0.037657	-0.371011	-0.208940	0.795692	-0.721200	-0.201190	0.734955	-0.727734	-0.137645	0.735390	-0.713444	-0.137994	0.794609	-0.705930	-0.292312	0.343084	-0.767363	-0.298627	0.298979	-0.767779	-0.246108	0.289609	-0.758227	-0.232296	0.327900	-0.757054	-0.361038	0.170155	-0.730255	-0.237844	0.054650	-0.776805	-0.214535	0.057415	-0.709632	-0.193100	0.042483	-0.717699	
7	0.0350	-0.284862	1.437065	-0.531792	-0.244771	1.410245	-0.699599	-0.216728	1.406316	-0.362565	-0.170368	1.386350	-0.538367	-0.133915	0.986585	-0.443743	-0.126433	0.996549	-0.625890	-0.192391	1.047147	-0.402853	-0.173099	1.050587	-0.663721	-0.279530	1.031818	-0.478685	-0.271893	1.031742	-0.591761	-0.282119	1.040256	-0.536293	-0.258268	0.786974	-0.381939	-0.245271	0.729179	-0.371765	-0.185616	0.742422	-0.349792	-0.190197	0.803146	-0.357174	-0.295172	0.356463	-0.340220	-0.305703	0.317259	-0.342032	-0.252982	0.301440	-0.326258	-0.237667	0.341512	-0.327100	-0.348234	0.157195	-0.371413	-0.226895	0.053397	-0.313293	-0.197601	0.049966	-0.381893	-0.179414	0.039135	-0.369708	-0.209520	0.796214	-0.721065	-0.201580	0.735507	-0.727622	-0.137941	0.736185	-0.713737	-0.138472	0.795410	-0.706243	-0.291899	0.344024	-0.767237	-0.298256	0.299920	-0.767670	-0.245767	0.290488	-0.758037	-0.231907	0.328770	-0.756848	-0.360750	0.170594	-0.730205	-0.236628	0.056068	-0.776752	-0.213360	0.059008	-0.709516	-0.191765	0.044200	-0.717519	
8	0.0400	-0.284517	1.437734	-0.531786	-0.244509	1.410768	-0.699463	-0.216948	1.406801	-0.362413	-0.170041	1.386953	-0.538293	-0.133753	0.986995	-0.443823	-0.126535	0.997020	-0.625991	-0.192101	1.047592	-0.402738	-0.173215	1.051089	-0.663690	-0.279247	1.032508	-0.478452	-0.271911	1.032413	-0.591513	-0.282100	1.040959	-0.536069	-0.258245	0.787207	-0.382149	-0.245191	0.729395	-0.372059	-0.185549	0.742668	-0.350065	-0.190147	0.803388	-0.357379	-0.294619	0.357009	-0.339893	-0.305222	0.317881	-0.341622	-0.252388	0.301983	-0.326375	-0.237041	0.342002	-0.327304	-0.348073	0.157265	-0.371186	-0.225616	0.055027	-0.312339	-0.196303	0.051256	-0.380846	-0.177999	0.040617	-0.368541	-0.210073	0.796490	-0.720948	-0.201931	0.735813	-0.727502	-0.138214	0.736747	-0.713972	-0.138942	0.795982	-0.706510	-0.291557	0.344773	-0.767027	-0.297966	0.300676	-0.767477	-0.245495	0.291164	-0.757833	-0.231593	0.329424	-0.756626	-0.360542	0.170829	-0.730089	-0.235501	0.057297	-0.776640	-0.212253	0.060439	-0.709352	-0.190485	0.045770	-0.717289	
9	0.0450	-0.284165	1.438180	-0.531773	-0.244262	1.411018	-0.699343	-0.217174	1.407024	-0.362268	-0.169665	1.387307	-0.538219	-0.133628	0.987173	-0.443893	-0.126663	0.997258	-0.626099	-0.191653	1.047884	-0.402693	-0.173355	1.051360	-0.663671	-0.279039	1.032928	-0.478202	-0.271961	1.032836	-0.591274	-0.282063	1.041396	-0.535808	-0.258185	0.787199	-0.382248	-0.245040	0.729381	-0.372248	-0.185376	0.742693	-0.350345	-0.190032	0.803432	-0.357593	-0.294092	0.357392	-0.339678	-0.304788	0.318345	-0.341302	-0.251887	0.302309	-0.326530	-0.236444	0.342281	-0.327511	-0.348042	0.157135	-0.371024	-0.224372	0.056559	-0.311459	-0.195070	0.052474	-0.379935	-0.176640	0.042052	-0.367540	-0.210591	0.796539	-0.720841	-0.202242	0.735892	-0.727373	-0.138466	0.737078	-0.714140	-0.139395	0.796327	-0.706720	-0.291265	0.345299	-0.766748	-0.297734	0.301217	-0.767210	-0.245279	0.291620	-0.757608	-0.231339	0.329864	-0.756395	-0.360393	0.170867	-0.729901	-0.234479	0.058305	-0.776475	-0.211222	0.061671	-0.709151	-0.189273	0.047146	-0.717027	
